
<svg xmlns="http://www.w3.org/2000/svg" xmlns:xlink="http://www.w3.org/1999/xlink"  zoomAndPan="magnify" viewBox="0 0 810 809.999993"  preserveAspectRatio="xMidYMid meet" version="1.0">

<g clip-path="url(#d2a9ac274b)">
<path  d="M 227.304688 150.34375 C 155.585938 150.34375 97.195312 208.851562 97.195312 280.457031 L 97.195312 584.046875 C 97.195312 655.769531 155.585938 714.160156 227.304688 714.160156 L 530.898438 714.160156 C 602.617188 714.160156 661.007812 655.769531 661.007812 584.046875 L 661.007812 453.9375 C 661.007812 441.964844 651.296875 432.253906 639.324219 432.253906 C 627.351562 432.253906 617.636719 441.964844 617.636719 453.9375 L 617.636719 584.046875 C 617.636719 632.5 579.351562 670.789062 530.898438 670.789062 L 227.304688 670.789062 C 178.964844 670.789062 140.566406 632.5 140.566406 584.046875 L 140.566406 280.457031 C 140.566406 232.117188 178.964844 193.714844 227.304688 193.714844 L 357.417969 193.714844 C 369.386719 193.714844 379.101562 184.003906 379.101562 172.03125 C 379.101562 160.058594 369.386719 150.34375 357.417969 150.34375 Z M 227.304688 150.34375 " />
</g>
<path  d="M 537.898438 135.4375 L 286.261719 387.074219 C 282.875 390.464844 280.726562 394.867188 280.164062 399.5 L 263.671875 520.574219 C 261.753906 534.578125 273.5 546.550781 287.617188 545.082031 L 411.289062 531.304688 C 416.261719 530.738281 420.777344 528.59375 424.277344 525.09375 L 675.917969 273.566406 C 713.867188 235.503906 713.867188 173.5 675.917969 135.4375 C 638.644531 96.585938 574.378906 100.085938 537.898438 135.4375 Z M 645.195312 166.15625 C 666.65625 187.617188 666.65625 221.273438 645.195312 242.847656 L 622.15625 265.886719 L 545.582031 189.199219 L 568.507812 166.15625 C 593.695312 140.972656 624.753906 145.714844 645.195312 166.15625 Z M 514.859375 219.804688 L 591.546875 296.496094 L 398.980469 489.0625 L 310.433594 498.890625 L 322.066406 412.601562 Z M 514.859375 219.804688 " />
</svg>