<svg xmlns="http://www.w3.org/2000/svg" xmlns:xlink="http://www.w3.org/1999/xlink"  zoomAndPan="magnify" viewBox="0 0 810 809.999993" preserveAspectRatio="xMidYMid meet" version="1.0"><defs><clipPath id="8f89998701"><path d="M 81 147.730469 L 729 147.730469 L 729 610.480469 L 81 610.480469 Z M 81 147.730469 " clip-rule="nonzero"/></clipPath></defs><g clip-path="url(#8f89998701)"><path  d="M 150.429688 147.8125 C 112.085938 147.8125 81 178.832031 81 217.199219 C 81.859375 322.417969 81.003906 433.785156 81 541.011719 C 81 577.941406 109.742188 607.828125 146.089844 610.039062 L 662.464844 610.398438 C 699.484375 608.90625 729 578.425781 729 541.011719 L 729 205.277344 C 723.382812 172.566406 694.964844 147.816406 660.65625 147.816406 C 490.671875 147.890625 320.480469 147.816406 150.425781 147.816406 Z M 149.34375 184.3125 L 662.824219 184.3125 L 414.398438 432.59375 C 409.867188 437.125 402.660156 437.125 398.128906 432.59375 L 149.339844 184.3125 Z M 694.289062 202.019531 L 694.289062 538.484375 C 694.289062 558.53125 687.0625 569.851562 672.59375 573.902344 L 497.574219 398.625 L 694.289062 202.027344 Z M 119.699219 203.464844 L 313.160156 396.816406 L 136.335938 573.535156 C 124.230469 569.453125 120.015625 559.710938 119.703125 546.429688 L 119.703125 203.46875 Z M 337.75 421.019531 L 398.140625 481.734375 C 402.671875 486.265625 409.878906 486.265625 414.410156 481.734375 L 472.992188 423.1875 L 625.59375 575.703125 L 182.988281 575.703125 L 337.753906 421.027344 Z M 337.75 421.019531 " /></g></svg>