<svg xmlns="http://www.w3.org/2000/svg" xmlns:xlink="http://www.w3.org/1999/xlink" zoomAndPan="magnify" viewBox="0 0 810 809.999993" preserveAspectRatio="xMidYMid meet" version="1.0"><defs><clipPath id="8f2a84fb4a"><path d="M 81 81 L 712.5 81 L 712.5 712.5 L 81 712.5 Z M 81 81 " clip-rule="nonzero"/></clipPath><clipPath id="e7026bd261"><path d="M 81 89.101562 L 712.5 89.101562 L 712.5 720.601562 L 81 720.601562 Z M 81 89.101562 " clip-rule="nonzero"/></clipPath></defs><g clip-path="url(#8f2a84fb4a)"><path fill="#f20001" d="M 396.75 81 C 222.371094 81 81 222.371094 81 396.75 C 81 571.128906 222.371094 712.5 396.75 712.5 C 571.128906 712.5 712.5 571.128906 712.5 396.75 C 712.5 222.371094 571.128906 81 396.75 81 Z M 396.75 679.9375 C 240.359375 679.9375 113.5625 553.140625 113.5625 396.75 C 113.5625 240.359375 240.359375 113.5625 396.75 113.5625 C 553.140625 113.5625 679.9375 240.359375 679.9375 396.75 C 679.9375 553.140625 553.140625 679.9375 396.75 679.9375 Z M 396.75 679.9375 " fill-opacity="1" fill-rule="nonzero"/></g><path fill="#f20001" d="M 441.203125 395.132812 C 470.320312 363.773438 500.855469 333.519531 532.433594 304.761719 C 538.253906 299.46875 538.746094 290.5 533.503906 284.628906 L 508.292969 256.433594 C 502.949219 250.464844 493.785156 250.039062 487.878906 255.429688 C 456.386719 284.117188 425.902344 314.242188 396.734375 345.421875 C 367.78125 312.527344 339.191406 279.007812 311.355469 245.304688 C 306.3125 239.203125 297.308594 238.3125 291.191406 243.328125 L 261.992188 267.269531 C 255.839844 272.296875 254.949219 281.382812 259.996094 287.5 C 289.972656 323.804688 320.820312 359.914062 352.050781 395.25 C 318.101562 434.738281 285.800781 476.207031 255.839844 518.84375 C 251.242188 525.390625 252.824219 534.425781 259.417969 538.976562 L 290.515625 560.394531 C 297.027344 564.878906 305.898438 563.230469 310.433594 556.769531 C 337.441406 518.351562 366.410156 480.90625 396.832031 445.109375 C 426.90625 478.070312 457.675781 510.75 488.722656 542.65625 C 494.261719 548.34375 503.378906 548.441406 509.050781 542.886719 L 536.027344 516.472656 C 541.679688 510.929688 541.78125 501.878906 536.257812 496.207031 C 504.105469 463.148438 472.265625 429.28125 441.203125 395.132812 Z M 441.203125 395.132812 " fill-opacity="1" fill-rule="nonzero"/><g clip-path="url(#e7026bd261)"><path fill="#f20001" d="M 396.75 89.101562 C 222.371094 89.101562 81 230.46875 81 404.851562 C 81 579.230469 222.371094 720.601562 396.75 720.601562 C 571.128906 720.601562 712.5 579.230469 712.5 404.851562 C 712.5 230.46875 571.128906 89.101562 396.75 89.101562 Z M 396.75 688.035156 C 240.359375 688.035156 113.5625 561.242188 113.5625 404.851562 C 113.5625 248.457031 240.359375 121.664062 396.75 121.664062 C 553.140625 121.664062 679.9375 248.457031 679.9375 404.851562 C 679.9375 561.242188 553.140625 688.035156 396.75 688.035156 Z M 396.75 688.035156 " fill-opacity="1" fill-rule="nonzero"/></g><path fill="#f20001" d="M 441.203125 403.234375 C 470.320312 371.875 500.855469 341.617188 532.433594 312.863281 C 538.253906 307.570312 538.746094 298.601562 533.503906 292.730469 L 508.292969 264.535156 C 502.949219 258.566406 493.785156 258.136719 487.878906 263.527344 C 456.386719 292.21875 425.902344 322.34375 396.734375 353.523438 C 367.78125 320.628906 339.191406 287.105469 311.355469 253.40625 C 306.3125 247.304688 297.308594 246.414062 291.191406 251.425781 L 261.992188 275.367188 C 255.839844 280.398438 254.949219 289.480469 259.996094 295.597656 C 289.972656 331.90625 320.820312 368.015625 352.050781 403.347656 C 318.101562 442.839844 285.800781 484.308594 255.839844 526.945312 C 251.242188 533.492188 252.824219 542.527344 259.417969 547.078125 L 290.515625 568.496094 C 297.027344 572.980469 305.898438 571.332031 310.433594 564.867188 C 337.441406 526.449219 366.410156 489.007812 396.832031 453.210938 C 426.90625 486.171875 457.675781 518.851562 488.722656 550.753906 C 494.261719 556.441406 503.378906 556.542969 509.050781 550.984375 L 536.027344 524.570312 C 541.679688 519.03125 541.78125 509.980469 536.257812 504.308594 C 504.105469 471.25 472.265625 437.382812 441.203125 403.234375 Z M 441.203125 403.234375 " fill-opacity="1" fill-rule="nonzero"/></svg>