<svg xmlns="http://www.w3.org/2000/svg" xmlns:xlink="http://www.w3.org/1999/xlink" width="1080" zoomAndPan="magnify" viewBox="0 0 810 809.999993" height="1080" preserveAspectRatio="xMidYMid meet" version="1.0"><defs><clipPath id="814cd4e282"><path d="M 81 97.199219 L 696 97.199219 L 696 712.949219 L 81 712.949219 Z M 81 97.199219 " clip-rule="nonzero"/></clipPath></defs><g clip-path="url(#814cd4e282)"><path fill="#006934" d="M 388.300781 712.460938 C 218.859375 712.460938 80.992188 574.5625 80.992188 405.007812 C 80.992188 235.449219 218.863281 97.480469 388.300781 97.480469 C 443.832031 97.480469 498.132812 112.320312 545.359375 140.496094 C 555.296875 146.417969 558.5625 159.285156 552.640625 169.152344 C 546.65625 179.160156 533.726562 182.152344 524 176.4375 C 483.230469 152.136719 436.351562 139.273438 388.300781 139.273438 C 241.929688 139.273438 122.773438 258.457031 122.773438 405.007812 C 122.773438 551.414062 241.933594 670.527344 388.300781 670.527344 C 534.746094 670.527344 653.832031 551.414062 653.832031 405.007812 C 653.832031 393.429688 663.222656 384.109375 674.789062 384.109375 C 686.359375 384.109375 695.753906 393.433594 695.753906 405.007812 C 695.753906 574.5625 557.8125 712.460938 388.300781 712.460938 Z M 388.300781 712.460938 " fill-opacity="1" fill-rule="nonzero"/></g><path fill="#00bb38" d="M 363.46875 576.597656 C 362.515625 576.597656 361.5625 576.597656 360.609375 576.464844 C 345.636719 575.644531 331.960938 567.894531 323.453125 555.503906 L 221.039062 406.363281 C 205.859375 384.246094 211.507812 354.019531 233.558594 338.84375 C 255.878906 323.597656 285.820312 329.3125 301.066406 351.367188 L 368.09375 449.109375 L 638.320312 140.566406 C 656.011719 120.347656 686.640625 118.441406 706.78125 136.070312 C 726.921875 153.703125 728.96875 184.398438 711.269531 204.546875 L 399.941406 559.992188 C 390.753906 570.613281 377.414062 576.597656 363.46875 576.597656 Z M 363.46875 576.597656 " fill-opacity="1" fill-rule="nonzero"/></svg>