<svg xmlns="http://www.w3.org/2000/svg" xmlns:xlink="http://www.w3.org/1999/xlink"  viewBox="0 0 810 809.999993" preserveAspectRatio="xMidYMid meet" version="1.0"><defs><clipPath id="23c6bbe638"><path d="M 81 81 L 729 81 L 729 729 L 81 729 Z M 81 81 " clip-rule="nonzero"/></clipPath></defs><g clip-path="url(#23c6bbe638)"><path  d="M 405.109375 81 C 494.621094 81 575.609375 117.285156 634.269531 175.945312 C 692.933594 234.554688 729.21875 315.59375 729.21875 405.109375 C 729.21875 494.570312 692.933594 575.609375 634.269531 634.269531 C 575.609375 692.933594 494.621094 729.21875 405.109375 729.21875 C 315.59375 729.21875 234.554688 692.933594 175.945312 634.269531 C 117.285156 575.609375 81 494.570312 81 405.109375 C 81 315.59375 117.285156 234.554688 175.945312 175.945312 C 234.554688 117.285156 315.59375 81 405.109375 81 Z M 621.074219 189.089844 C 565.832031 133.851562 489.460938 99.628906 405.109375 99.628906 C 320.753906 99.628906 244.386719 133.851562 189.089844 189.089844 C 133.851562 244.386719 99.628906 320.753906 99.628906 405.109375 C 99.628906 489.460938 133.851562 565.832031 189.089844 621.074219 C 244.386719 676.367188 320.753906 710.53125 405.109375 710.53125 C 489.460938 710.53125 565.832031 676.367188 621.074219 621.074219 C 676.367188 565.832031 710.53125 489.460938 710.53125 405.109375 C 710.53125 320.753906 676.367188 244.386719 621.074219 189.089844 Z M 621.074219 189.089844 " fill-rule="nonzero"/></g><path  d="M 327.433594 372.734375 C 334.550781 393.375 351.660156 417.277344 372.300781 437.914062 C 392.941406 458.554688 416.785156 475.667969 437.480469 482.78125 L 461.597656 458.609375 C 466.324219 453.941406 472.136719 450.953125 478.328125 449.703125 C 484.519531 448.5625 491.039062 449.160156 497.121094 451.765625 L 502.769531 454.046875 C 520.910156 461.652344 541.988281 470.234375 563.007812 478.816406 L 565.289062 479.738281 C 569.742188 481.585938 573.652344 484.25 576.804688 487.671875 C 580.007812 491.09375 582.398438 495.164062 583.867188 499.78125 C 585.332031 504.34375 585.765625 509.070312 585.222656 513.6875 C 584.679688 518.304688 583.050781 522.757812 580.445312 526.886719 C 574.414062 536.5 567.84375 544.757812 560.890625 551.710938 C 533.296875 579.355469 498.96875 588.101562 463.554688 584.789062 C 429.117188 581.636719 393.757812 566.972656 362.632812 547.417969 C 341.882812 534.382812 323.035156 519.121094 307.609375 503.746094 L 306.46875 502.605469 C 291.042969 487.179688 275.835938 468.332031 262.796875 447.585938 C 243.246094 416.460938 228.578125 381.046875 225.375 346.664062 C 222.113281 311.195312 230.859375 276.921875 258.507812 249.273438 C 265.515625 242.320312 273.769531 235.75 283.332031 229.71875 C 287.402344 227.113281 291.914062 225.539062 296.53125 224.941406 L 296.53125 224.992188 C 301.09375 224.398438 305.816406 224.832031 310.378906 226.351562 C 315.050781 227.820312 319.125 230.207031 322.546875 233.359375 C 325.914062 236.507812 328.628906 240.421875 330.476562 244.929688 L 331.726562 248.078125 C 340.199219 268.828125 348.621094 289.578125 356.167969 307.394531 C 356.222656 307.5 358.179688 312.445312 358.394531 313.042969 C 361.058594 319.179688 361.65625 325.699219 360.460938 331.835938 C 359.265625 338.082031 356.277344 343.894531 351.550781 348.566406 L 327.4375 372.734375 Z M 359.101562 451.113281 C 334.660156 426.671875 314.617188 397.503906 307.882812 372.464844 L 306.46875 367.304688 L 338.351562 335.367188 C 340.417969 333.355469 341.722656 330.910156 342.210938 328.359375 C 342.699219 325.75 342.425781 322.980469 341.285156 320.320312 L 339.003906 314.5625 C 329.933594 293 322.222656 274.042969 314.507812 255.085938 L 313.203125 251.878906 C 312.390625 249.980469 311.25 248.296875 309.835938 246.992188 C 308.425781 245.6875 306.6875 244.65625 304.730469 244.003906 C 302.722656 243.40625 300.710938 243.191406 298.757812 243.40625 C 296.800781 243.734375 294.953125 244.386719 293.214844 245.472656 C 284.90625 250.6875 277.734375 256.390625 271.652344 262.472656 C 248.457031 285.71875 241.125 314.78125 243.894531 344.980469 C 246.773438 376.210938 260.355469 408.800781 278.550781 437.644531 C 290.71875 457.089844 305.058594 474.796875 319.667969 489.410156 L 320.808594 490.550781 C 335.367188 505.160156 353.128906 519.445312 372.574219 531.667969 C 401.414062 549.808594 434.003906 563.386719 465.183594 566.320312 C 495.382812 569.089844 524.496094 561.757812 547.691406 538.511719 C 553.828125 532.425781 559.53125 525.257812 564.746094 517 C 565.832031 515.261719 566.484375 513.363281 566.753906 511.40625 C 567.027344 509.503906 566.808594 507.496094 566.15625 505.484375 C 565.507812 503.476562 564.527344 501.738281 563.226562 500.324219 C 561.921875 498.914062 560.238281 497.773438 558.28125 497.011719 L 556 496.089844 C 536.71875 488.214844 517.488281 480.390625 495.546875 471.15625 L 489.84375 468.875 C 487.234375 467.789062 484.464844 467.519531 481.859375 468.007812 C 479.304688 468.496094 476.808594 469.800781 474.796875 471.808594 L 442.914062 503.746094 L 437.699219 502.335938 C 412.714844 495.601562 383.492188 475.503906 359.101562 451.113281 Z M 359.101562 451.113281 " /></svg>