
<svg xmlns="http://www.w3.org/2000/svg" xmlns:xlink="http://www.w3.org/1999/xlink"  zoomAndPan="magnify" viewBox="0 0 810 809.999993"  preserveAspectRatio="xMidYMid meet" version="1.0">
<path  d="M 302.277344 611.199219 C 304.53125 610.046875 306.871094 608.945312 309.253906 607.902344 C 317.875 604.125 321.804688 594.066406 318.03125 585.4375 C 314.253906 576.8125 304.1875 572.902344 295.578125 576.664062 C 292.585938 577.972656 289.683594 579.347656 286.792969 580.816406 C 254.804688 597.21875 237.171875 619.105469 237.171875 642.457031 C 237.171875 665.929688 254.804688 687.84375 286.820312 704.175781 C 318.242188 720.179688 360.046875 729 404.535156 729 C 449.039062 729 490.835938 720.179688 522.242188 704.175781 C 554.253906 687.835938 571.882812 665.921875 571.882812 642.457031 C 571.882812 619.113281 554.257812 597.226562 522.242188 580.800781 C 518.953125 579.125 515.535156 577.527344 512.03125 576.015625 C 503.371094 572.300781 493.355469 576.28125 489.632812 584.921875 C 485.914062 593.574219 489.902344 603.613281 498.542969 607.328125 C 501.371094 608.550781 504.105469 609.832031 506.71875 611.15625 C 529.660156 622.921875 537.800781 635.363281 537.800781 642.449219 C 537.800781 649.597656 529.667969 662.097656 506.761719 673.785156 C 480.0625 687.40625 443.757812 694.894531 404.535156 694.894531 C 365.320312 694.894531 329.015625 687.40625 302.308594 673.785156 C 279.386719 662.105469 271.269531 649.605469 271.269531 642.449219 C 271.261719 635.371094 279.394531 622.929688 302.277344 611.199219 Z M 302.277344 611.199219 " fill-opacity="1" fill-rule="nonzero"/>
<path  d="M 406.789062 81.058594 C 406.328125 81.023438 405.867188 81 405.398438 81 L 403.679688 81 C 403.210938 81 402.75 81.023438 402.304688 81.058594 C 289.996094 82.714844 198.851562 175.148438 198.851562 287.378906 C 197.078125 399.046875 282.480469 501.234375 344.839844 575.839844 C 363.125 597.722656 378.921875 616.628906 389.609375 632.28125 C 392.777344 636.933594 398.050781 639.71875 403.6875 639.71875 L 405.40625 639.71875 C 411.039062 639.71875 416.316406 636.933594 419.488281 632.28125 C 430.160156 616.621094 445.964844 597.722656 464.253906 575.835938 C 526.601562 501.226562 611.996094 399.03125 610.234375 287.65625 C 610.226562 175.15625 519.074219 82.726562 406.789062 81.058594 Z M 438.09375 553.960938 C 425.570312 568.953125 414.179688 582.582031 404.535156 595.03125 C 394.890625 582.582031 383.507812 568.953125 370.984375 553.96875 C 312.058594 483.457031 231.363281 386.890625 232.933594 287.65625 C 232.933594 193.378906 309.589844 115.992188 403.828125 115.140625 C 404.066406 115.140625 404.296875 115.136719 404.535156 115.121094 C 404.773438 115.136719 405.003906 115.140625 405.246094 115.140625 C 499.472656 115.992188 576.136719 193.378906 576.136719 287.921875 C 577.707031 386.890625 497.019531 483.453125 438.09375 553.960938 Z M 438.09375 553.960938 " fill-opacity="1" fill-rule="nonzero"/>
<path  d="M 404.535156 212.3125 C 362.882812 212.765625 329.207031 246.320312 329.207031 287.683594 C 329.207031 329.046875 362.84375 362.59375 404.535156 363.046875 C 446.230469 362.59375 479.863281 329.046875 479.863281 287.683594 C 479.863281 246.320312 446.1875 212.765625 404.535156 212.3125 Z M 404.535156 212.3125 " fill-opacity="1" fill-rule="nonzero"/>
</svg>