<svg xmlns="http://www.w3.org/2000/svg" xmlns:xlink="http://www.w3.org/1999/xlink"  zoomAndPan="magnify" viewBox="0 0 810 809.999993 " preserveAspectRatio="xMidYMid meet" version="1.0">

<path  d="M 405 698.828125 C 447.5 675.382812 729 511.59375 729 289.789062 C 729 194.28125 650.605469 110.503906 561.214844 110.503906 C 557.515625 110.511719 553.824219 110.640625 550.132812 110.890625 C 546.441406 111.140625 542.765625 111.511719 539.101562 112.003906 C 535.4375 112.496094 531.789062 113.109375 528.167969 113.84375 C 524.542969 114.578125 520.945312 115.429688 517.375 116.398438 C 513.808594 117.371094 510.277344 118.457031 506.78125 119.660156 C 503.28125 120.863281 499.828125 122.179688 496.421875 123.613281 C 493.011719 125.042969 489.652344 126.585938 486.34375 128.238281 C 483.035156 129.890625 479.785156 131.652344 476.59375 133.519531 C 473.402344 135.386719 470.277344 137.355469 467.214844 139.429688 C 464.152344 141.503906 461.164062 143.675781 458.246094 145.945312 C 455.328125 148.214844 452.488281 150.582031 449.722656 153.039062 C 446.960938 155.496094 444.285156 158.042969 441.691406 160.675781 C 439.097656 163.3125 436.589844 166.027344 434.175781 168.828125 C 431.761719 171.628906 429.441406 174.503906 427.21875 177.457031 C 424.992188 180.410156 422.867188 183.433594 420.84375 186.527344 C 418.816406 189.617188 416.894531 192.773438 415.078125 195.996094 C 414.804688 196.410156 414.507812 196.808594 414.1875 197.1875 C 413.863281 197.570312 413.519531 197.925781 413.152344 198.265625 C 412.785156 198.601562 412.398438 198.914062 411.996094 199.203125 C 411.589844 199.492188 411.167969 199.753906 410.730469 199.992188 C 410.289062 200.230469 409.839844 200.4375 409.375 200.617188 C 408.910156 200.800781 408.4375 200.949219 407.953125 201.074219 C 407.472656 201.195312 406.984375 201.289062 406.488281 201.347656 C 405.996094 201.410156 405.5 201.441406 405 201.441406 C 404.5 201.441406 404.003906 201.410156 403.511719 201.347656 C 403.015625 201.289062 402.527344 201.195312 402.046875 201.074219 C 401.5625 200.949219 401.089844 200.800781 400.625 200.617188 C 400.160156 200.4375 399.710938 200.230469 399.269531 199.992188 C 398.832031 199.753906 398.410156 199.492188 398.003906 199.203125 C 397.601562 198.914062 397.214844 198.601562 396.847656 198.265625 C 396.480469 197.925781 396.136719 197.570312 395.8125 197.1875 C 395.492188 196.808594 395.195312 196.410156 394.921875 195.996094 C 393.105469 192.773438 391.183594 189.617188 389.15625 186.527344 C 387.132812 183.433594 385.007812 180.410156 382.78125 177.457031 C 380.558594 174.503906 378.238281 171.628906 375.824219 168.828125 C 373.410156 166.027344 370.902344 163.3125 368.308594 160.675781 C 365.714844 158.042969 363.039062 155.496094 360.277344 153.039062 C 357.511719 150.578125 354.671875 148.214844 351.753906 145.945312 C 348.835938 143.675781 345.847656 141.503906 342.785156 139.429688 C 339.722656 137.355469 336.597656 135.386719 333.40625 133.519531 C 330.214844 131.652344 326.964844 129.890625 323.65625 128.238281 C 320.347656 126.585938 316.988281 125.042969 313.578125 123.613281 C 310.171875 122.179688 306.71875 120.863281 303.21875 119.660156 C 299.722656 118.457031 296.191406 117.371094 292.625 116.398438 C 289.054688 115.429688 285.457031 114.578125 281.832031 113.84375 C 278.210938 113.109375 274.5625 112.496094 270.898438 112.003906 C 267.234375 111.511719 263.558594 111.140625 259.867188 110.890625 C 256.175781 110.640625 252.484375 110.511719 248.785156 110.503906 C 159.394531 110.503906 81 194.28125 81 289.789062 C 81 511.59375 362.5 675.382812 405 698.828125 Z M 405 698.828125 " fill-opacity="1" fill-rule="nonzero"/>


</svg>