<svg xmlns="http://www.w3.org/2000/svg" xmlns:xlink="http://www.w3.org/1999/xlink" width="1080" zoomAndPan="magnify" viewBox="0 0 810 809.999993" height="1080" preserveAspectRatio="xMidYMid meet" version="1.0">

<path  d="M 422.929688 206.257812 L 421.117188 118.058594 C 420.867188 105.902344 410.863281 96.300781 398.703125 96.550781 C 386.546875 96.800781 376.945312 106.804688 377.195312 118.964844 L 379.007812 207.160156 C 378.984375 213.246094 381.574219 218.808594 385.699219 222.769531 C 389.679688 226.585938 395.34375 228.945312 401.417969 228.671875 C 413.550781 228.453125 423.179688 218.417969 422.929688 206.257812 Z M 277.164062 251.832031 L 213.546875 190.773438 C 204.789062 182.367188 190.769531 182.65625 182.363281 191.414062 C 173.957031 200.171875 174.246094 214.191406 183.003906 222.597656 L 246.621094 283.65625 C 255.378906 292.058594 269.402344 291.773438 277.808594 283.015625 C 286.210938 274.257812 285.894531 260.207031 277.164062 251.832031 Z M 228.617188 408.726562 C 228.367188 396.566406 218.363281 386.964844 206.203125 387.214844 L 118.003906 389.027344 C 105.847656 389.277344 96.246094 399.28125 96.496094 411.441406 C 96.765625 417.515625 99.234375 422.910156 103.359375 426.867188 C 107.335938 430.6875 113.003906 433.042969 118.90625 432.953125 L 207.105469 431.140625 C 219.238281 430.917969 228.867188 420.886719 228.617188 408.726562 Z M 282.902344 532.339844 C 274.144531 523.933594 260.121094 524.222656 251.71875 532.980469 L 190.660156 596.601562 C 182.253906 605.359375 182.542969 619.378906 191.300781 627.785156 C 200.058594 636.1875 214.078125 635.902344 222.484375 627.144531 L 283.542969 563.523438 C 291.945312 554.765625 291.660156 540.746094 282.902344 532.339844 Z M 432.898438 691.238281 L 431.085938 603.039062 C 430.835938 590.878906 420.828125 581.277344 408.671875 581.527344 C 396.511719 581.777344 386.910156 591.78125 387.160156 603.941406 L 388.972656 692.140625 C 389.09375 698.074219 391.710938 703.609375 395.6875 707.425781 C 399.816406 711.386719 405.332031 713.601562 411.386719 713.652344 C 423.515625 713.429688 433.148438 703.394531 432.898438 691.238281 Z M 627.027344 587.605469 L 563.410156 526.546875 C 554.652344 518.140625 540.628906 518.429688 532.226562 527.1875 C 523.820312 535.945312 524.109375 549.964844 532.867188 558.371094 L 596.484375 619.429688 C 605.242188 627.832031 619.265625 627.546875 627.667969 618.789062 C 636.074219 610.03125 635.785156 596.007812 627.027344 587.605469 Z M 713.597656 398.757812 C 713.347656 386.601562 703.339844 377 691.183594 377.25 L 602.984375 379.0625 C 590.824219 379.3125 581.222656 389.316406 581.472656 401.472656 C 581.453125 407.558594 584.039062 413.121094 588.019531 416.9375 C 592.144531 420.898438 597.839844 423.285156 603.886719 422.984375 L 692.085938 421.171875 C 704.214844 420.953125 713.847656 410.917969 713.597656 398.757812 Z M 618.703125 182.445312 C 609.945312 174.042969 595.925781 174.332031 587.519531 183.089844 L 526.460938 246.707031 C 518.058594 255.464844 518.34375 269.484375 527.101562 277.890625 C 535.859375 286.296875 549.882812 286.007812 558.285156 277.25 L 619.34375 213.632812 C 627.75 204.875 627.460938 190.851562 618.703125 182.445312 Z M 516.34375 511.945312 C 457.28125 573.484375 359.714844 575.492188 298.171875 516.425781 C 236.632812 457.363281 234.625 359.796875 293.6875 298.257812 C 352.753906 236.714844 450.316406 234.710938 511.859375 293.773438 C 573.402344 352.835938 575.40625 450.402344 516.34375 511.945312 Z M 516.34375 511.945312 "  d="M 422.929688 206.257812 L 421.117188 118.058594 C 420.867188 105.902344 410.863281 96.300781 398.703125 96.550781 C 386.546875 96.800781 376.945312 106.804688 377.195312 118.964844 L 379.007812 207.160156 C 378.984375 213.246094 381.574219 218.808594 385.699219 222.769531 C 389.679688 226.585938 395.34375 228.945312 401.417969 228.671875 C 413.550781 228.453125 423.179688 218.417969 422.929688 206.257812 Z M 277.164062 251.832031 L 213.546875 190.773438 C 204.789062 182.367188 190.769531 182.65625 182.363281 191.414062 C 173.957031 200.171875 174.246094 214.191406 183.003906 222.597656 L 246.621094 283.65625 C 255.378906 292.058594 269.402344 291.773438 277.808594 283.015625 C 286.210938 274.257812 285.894531 260.207031 277.164062 251.832031 Z M 228.617188 408.726562 C 228.367188 396.566406 218.363281 386.964844 206.203125 387.214844 L 118.003906 389.027344 C 105.847656 389.277344 96.246094 399.28125 96.496094 411.441406 C 96.765625 417.515625 99.234375 422.910156 103.359375 426.867188 C 107.335938 430.6875 113.003906 433.042969 118.90625 432.953125 L 207.105469 431.140625 C 219.238281 430.917969 228.867188 420.886719 228.617188 408.726562 Z M 282.902344 532.339844 C 274.144531 523.933594 260.121094 524.222656 251.71875 532.980469 L 190.660156 596.601562 C 182.253906 605.359375 182.542969 619.378906 191.300781 627.785156 C 200.058594 636.1875 214.078125 635.902344 222.484375 627.144531 L 283.542969 563.523438 C 291.945312 554.765625 291.660156 540.746094 282.902344 532.339844 Z M 432.898438 691.238281 L 431.085938 603.039062 C 430.835938 590.878906 420.828125 581.277344 408.671875 581.527344 C 396.511719 581.777344 386.910156 591.78125 387.160156 603.941406 L 388.972656 692.140625 C 389.09375 698.074219 391.710938 703.609375 395.6875 707.425781 C 399.816406 711.386719 405.332031 713.601562 411.386719 713.652344 C 423.515625 713.429688 433.148438 703.394531 432.898438 691.238281 Z M 627.027344 587.605469 L 563.410156 526.546875 C 554.652344 518.140625 540.628906 518.429688 532.226562 527.1875 C 523.820312 535.945312 524.109375 549.964844 532.867188 558.371094 L 596.484375 619.429688 C 605.242188 627.832031 619.265625 627.546875 627.667969 618.789062 C 636.074219 610.03125 635.785156 596.007812 627.027344 587.605469 Z M 713.597656 398.757812 C 713.347656 386.601562 703.339844 377 691.183594 377.25 L 602.984375 379.0625 C 590.824219 379.3125 581.222656 389.316406 581.472656 401.472656 C 581.453125 407.558594 584.039062 413.121094 588.019531 416.9375 C 592.144531 420.898438 597.839844 423.285156 603.886719 422.984375 L 692.085938 421.171875 C 704.214844 420.953125 713.847656 410.917969 713.597656 398.757812 Z M 618.703125 182.445312 C 609.945312 174.042969 595.925781 174.332031 587.519531 183.089844 L 526.460938 246.707031 C 518.058594 255.464844 518.34375 269.484375 527.101562 277.890625 C 535.859375 286.296875 549.882812 286.007812 558.285156 277.25 L 619.34375 213.632812 C 627.75 204.875 627.460938 190.851562 618.703125 182.445312 Z M 516.34375 511.945312 C 457.28125 573.484375 359.714844 575.492188 298.171875 516.425781 C 236.632812 457.363281 234.625 359.796875 293.6875 298.257812 C 352.753906 236.714844 450.316406 234.710938 511.859375 293.773438 C 573.402344 352.835938 575.40625 450.402344 516.34375 511.945312 Z M 516.34375 511.945312 " />

</svg>