<svg xmlns="http://www.w3.org/2000/svg" xmlns:xlink="http://www.w3.org/1999/xlink" viewBox="0 0 810 809.999993"  preserveAspectRatio="xMidYMid meet" version="1.0">

<path  d="M 543.398438 219.410156 C 543.398438 143.128906 481.320312 81.054688 405.027344 81.054688 C 328.730469 81.054688 266.652344 143.128906 266.652344 219.410156 C 266.652344 295.484375 328.730469 357.558594 405.027344 357.558594 C 481.320312 357.558594 543.398438 295.484375 543.398438 219.410156 Z M 543.398438 219.410156 "/>
<g clip-path="url(#f120734057)">
<path  d="M 164.652344 613.996094 L 164.652344 655.796875 C 164.652344 696.132812 197.46875 728.945312 237.808594 728.945312 L 572.242188 728.945312 C 612.585938 728.945312 645.402344 696.132812 645.402344 655.796875 L 645.402344 613.996094 C 645.402344 481.492188 537.546875 373.652344 405.027344 373.652344 C 272.503906 373.652344 164.652344 481.492188 164.652344 613.996094 Z M 164.652344 613.996094 " fill-opacity="1" fill-rule="nonzero"/>
</g></svg>